<svg width="21" height="22" viewBox="0 0 21 22" fill="none" xmlns="http://www.w3.org/2000/svg">
<ellipse cx="10.5" cy="9" rx="5.5" ry="5" fill="white"/>
<ellipse cx="10.5" cy="12" rx="3.5" ry="5" fill="white"/>
<path d="M10.3889 19.25C9.29544 18.2624 8.28188 17.1797 7.35883 16.0132C5.97364 14.2615 4.32874 11.6526 4.32874 9.16665C4.32814 7.89703 4.68326 6.65576 5.34918 5.59992C6.01509 4.54409 6.96186 3.72115 8.06966 3.23526C9.17746 2.74937 10.3965 2.62237 11.5725 2.87033C12.7485 3.11829 13.8286 3.73007 14.6761 4.62823C15.2403 5.22302 15.6876 5.93039 15.9919 6.70941C16.2962 7.48843 16.4516 8.32362 16.4491 9.16665C16.4491 11.6526 14.8042 14.2615 13.419 16.0132C12.496 17.1797 11.4824 18.2624 10.3889 19.25ZM10.3889 4.58332C9.2413 4.58477 8.14108 5.06812 7.32958 5.92735C6.51809 6.78658 6.06159 7.95152 6.06022 9.16665C6.06022 10.2355 6.51646 12.0862 8.68774 14.8372C9.22288 15.5137 9.7907 16.1605 10.3889 16.775C10.9872 16.1612 11.5553 15.5153 12.091 14.8399C14.2614 12.0853 14.7176 10.2346 14.7176 9.16665C14.7163 7.95152 14.2598 6.78658 13.4483 5.92735C12.6368 5.06812 11.5365 4.58477 10.3889 4.58332ZM10.3889 11.9166C9.7001 11.9166 9.03948 11.6269 8.55241 11.1112C8.06533 10.5955 7.7917 9.89599 7.7917 9.16665C7.7917 8.4373 8.06533 7.73783 8.55241 7.22211C9.03948 6.70638 9.7001 6.41665 10.3889 6.41665C11.0777 6.41665 11.7384 6.70638 12.2254 7.22211C12.7125 7.73783 12.9861 8.4373 12.9861 9.16665C12.9861 9.89599 12.7125 10.5955 12.2254 11.1112C11.7384 11.6269 11.0777 11.9166 10.3889 11.9166Z" fill="#FC3901"/>
</svg>
