<svg width="22" height="22" viewBox="0 0 22 22" fill="none" xmlns="http://www.w3.org/2000/svg">
<path fill-rule="evenodd" clip-rule="evenodd" d="M7.94444 0C12.332 0 15.8889 3.55685 15.8889 7.94444C15.8889 9.91222 15.1678 11.7211 13.9822 13.1144L14.3122 13.4444H15.2778L21.3889 19.5556L19.5556 21.3889L13.4444 15.2778V14.3122L13.1144 13.9822C11.7211 15.1678 9.91222 15.8889 7.94444 15.8889C3.55685 15.8889 0 12.332 0 7.94444C0 3.55685 3.55685 0 7.94444 0ZM7.94444 2.44444C4.88889 2.44444 2.44444 4.88889 2.44444 7.94444C2.44444 11 4.88889 13.4444 7.94444 13.4444C11 13.4444 13.4444 11 13.4444 7.94444C13.4444 4.88889 11 2.44444 7.94444 2.44444Z" fill="#999999"/>
<mask id="mask0_218_460" style="mask-type:alpha" maskUnits="userSpaceOnUse" x="0" y="0" width="22" height="22">
<path fill-rule="evenodd" clip-rule="evenodd" d="M7.94444 0C12.332 0 15.8889 3.55685 15.8889 7.94444C15.8889 9.91222 15.1678 11.7211 13.9822 13.1144L14.3122 13.4444H15.2778L21.3889 19.5556L19.5556 21.3889L13.4444 15.2778V14.3122L13.1144 13.9822C11.7211 15.1678 9.91222 15.8889 7.94444 15.8889C3.55685 15.8889 0 12.332 0 7.94444C0 3.55685 3.55685 0 7.94444 0ZM7.94444 2.44444C4.88889 2.44444 2.44444 4.88889 2.44444 7.94444C2.44444 11 4.88889 13.4444 7.94444 13.4444C11 13.4444 13.4444 11 13.4444 7.94444C13.4444 4.88889 11 2.44444 7.94444 2.44444Z" fill="white"/>
</mask>
<g mask="url(#mask0_218_460)">
</g>
</svg>
